# xmcd
#
# Track frame offsets: 
#        150
#        17231
#        34601
#        51088
#        63241
#        76409
#        91632
#        111898
#        125314
#        141168
#
# Disc length: 2163 seconds
#
# Revision: 0
# Processed by: cddbd v1.5.2PL0 Copyright (c) Steve Scherf et al.
# Submitted via: ExactAudioCopyFreeDBPlugin 1.0
#
DISCID=7808710a
DTITLE=Otis Redding - Live In Europe
DYEAR=1967
DGENRE=Soul
TTITLE0=Respect
TTITLE1=Can't Turn You Loose
TTITLE2=I've Been Loving You Too Long
TTITLE3=My Girl
TTITLE4=Shake
TTITLE5=Satisfaction (I Can't Get No)
TTITLE6=Fa-Fa-Fa-Fa-Fa (Sad Song)
TTITLE7=These Arms Of Mine
TTITLE8=Day Tripper
TTITLE9=Try A Little Tenderness
EXTD=
EXTT0=
EXTT1=
EXTT2=
EXTT3=
EXTT4=
EXTT5=
EXTT6=
EXTT7=
EXTT8=
EXTT9=
PLAYORDER=
